<svg xmlns="http://www.w3.org/2000/svg" viewBox="0 0 512 512">
  <defs>
    <linearGradient id="g" x1="0" y1="0" x2="1" y2="1">
      <stop stop-color="#ff89af"/>
      <stop offset=".5" stop-color="#ff4f91"/>
      <stop offset="1" stop-color="#7b2cff"/>
    </linearGradient>
  </defs>
  <rect width="512" height="512" rx="120" fill="url(#g)"/>
  <path d="M255 389c-12-12-48-43-84-78-43-42-72-74-72-123 0-42 32-75 74-75 24 0 47 12 62 32 15-20 38-32 62-32 42 0 74 33 74 75 0 49-29 81-72 123-36 35-72 66-84 78Z" fill="white" opacity=".94"/>
  <circle cx="255" cy="240" r="48" fill="#ff4f91" opacity=".24"/>
</svg>
